<?xml version="1.0" standalone="no"?>
<!DOCTYPE svg PUBLIC "-//W3C//DTD SVG 20010904//EN"
 "http://www.w3.org/TR/2001/REC-SVG-20010904/DTD/svg10.dtd">
<svg version="1.0" xmlns="http://www.w3.org/2000/svg"
 width="700.000000pt" height="231.000000pt" viewBox="0 0 700.000000 231.000000"
 preserveAspectRatio="xMidYMid meet">

<g transform="translate(0.000000,231.000000) scale(0.100000,-0.100000)"
fill="#000000" stroke="none">
<path d="M895 2280 c-451 -97 -774 -427 -872 -890 -22 -106 -24 -352 -4 -455
113 -578 576 -956 1141 -932 188 9 320 41 475 118 347 173 567 551 592 1015
l6 114 -601 0 -602 0 0 -155 0 -155 425 0 c261 0 425 -4 425 -9 0 -30 -56
-177 -91 -241 -52 -92 -177 -219 -269 -273 -210 -122 -505 -137 -724 -38 -210
95 -357 271 -432 517 -25 82 -28 103 -28 254 0 151 3 173 27 253 49 161 114
264 236 379 60 57 104 87 173 121 141 69 197 82 373 81 136 0 157 -2 230 -27
44 -14 109 -43 145 -64 61 -36 210 -171 243 -221 l15 -23 118 91 c66 51 119
98 119 105 0 26 -110 148 -200 222 -104 86 -266 171 -390 204 -118 31 -403 37
-530 9z"/>
<path d="M2715 2211 c-99 -45 -132 -146 -82 -242 81 -154 326 -95 327 79 0
134 -126 218 -245 163z"/>
<path d="M6240 1645 c-139 -28 -280 -102 -392 -205 l-68 -62 0 126 0 126 -165
0 -165 0 0 -800 0 -800 165 0 165 0 0 418 c0 384 2 425 20 496 66 259 275 425
506 402 169 -17 266 -104 321 -287 14 -46 17 -128 20 -541 l4 -488 165 0 165
0 -3 558 c-4 537 -5 560 -26 637 -80 290 -269 437 -562 434 -47 -1 -114 -7
-150 -14z"/>
<path d="M2620 830 l0 -800 165 0 165 0 0 800 0 800 -165 0 -165 0 0 -800z"/>
<path d="M3340 1624 c0 -5 632 -1503 661 -1567 l12 -27 191 2 190 3 336 795
337 795 -180 3 c-99 1 -181 1 -183 -1 -2 -2 -112 -275 -244 -608 -132 -332
-244 -613 -249 -624 -6 -15 -67 129 -257 608 l-249 627 -182 0 c-101 0 -183
-3 -183 -6z"/>
</g>
</svg>
