<?xml version="1.0" encoding="utf-8"?>
<!-- Generator: Adobe Illustrator 22.1.0, SVG Export Plug-In . SVG Version: 6.00 Build 0)  -->
<svg version="1.1" id="Ebene_1" xmlns="http://www.w3.org/2000/svg" xmlns:xlink="http://www.w3.org/1999/xlink" x="0px" y="0px"
	 viewBox="0 0 569.9 538.9" style="enable-background:new 0 0 569.9 538.9;" xml:space="preserve">
<g>
	<path d="M105.4,241.4c0-37.3-20.6-70-59.1-70H0v141.1h46.4C86.7,312.5,105.4,280.3,105.4,241.4L105.4,241.4z M75.4,270.6
		c-1.2,15.7-1.6,39.5-29.2,39.5H24V173.8h22.4c25.8,0,28,25.2,29,38.1C76.8,231.3,76.8,251.2,75.4,270.6L75.4,270.6z"/>
	<polygon points="197.4,173.8 197.4,171.4 118.7,171.4 118.7,312.5 197.4,312.5 197.4,310.1 142.7,310.1 142.7,243.4 190.3,243.4 
		190.3,241 142.7,241 142.7,173.8 	"/>
	<polygon points="283.8,173.8 283.8,171.4 205.2,171.4 205.2,312.5 283.8,312.5 283.8,310.1 229.2,310.1 229.2,243.4 276.8,243.4 
		276.8,241 229.2,241 229.2,173.8 	"/>
	<path d="M384.6,312.5l-38.9-74v-0.2c16.9-1.6,35.5-12.5,35.5-32.5c0-26.8-23.4-34.5-42.7-34.5h-47.2v141.1h24v-73c0,0,0.2,0,4.1,0
		l38.2,73L384.6,312.5L384.6,312.5z M315.3,173.8c0,0,0.6,0,22.6,0c10.9,0,19,6.9,19,32.3c0,24.2-7.1,31.2-18.5,31.2
		c-22.6,0-23,0-23,0V173.8z"/>
	<path d="M247.6,141.1L199.1,0h-12.7L142,141.1h3.2l16.9-53.4h41.1l17.9,53.4H247.6L247.6,141.1z M202.5,85.3h-39.7l19.2-62.7h0.4
		L202.5,85.3L202.5,85.3z"/>
	<path d="M396.7,70c0-37.3-20.6-70-59.1-70h-46.4v141.1h46.4C378,141.1,396.7,108.9,396.7,70L396.7,70z M366.7,99.2
		c-1.2,15.7-1.6,39.5-29.2,39.5h-22.2V2.4h22.4c25.8,0,28,25.2,29,38.1C368.1,59.9,368.1,79.8,366.7,99.2L366.7,99.2z"/>
	<polygon points="569.9,171.4 374.8,171.4 374.8,173.8 417.1,173.8 417.1,312.5 441.1,312.5 441.1,173.8 541.9,173.8 541.9,174.2 
		507.1,240.3 478.6,240.3 478.6,242.8 505.8,242.8 469.1,312.5 567.9,312.5 567.9,310.1 497.9,310.1 497.9,309.5 532.7,242.8 
		569,242.8 569,240.3 534,240.3 	"/>
	<path d="M264.3,143.4c-5,0-9-4.1-9-9.9c0-5.7,4-9.8,9-9.8c4.9,0,9,4.1,9,9.8C273.3,139.3,269.2,143.4,264.3,143.4z"/>
	<path d="M398.2,143.4c-5,0-9-4.1-9-9.9c0-5.7,4-9.8,9-9.8c4.9,0,9,4.1,9,9.8C407.3,139.3,403.1,143.4,398.2,143.4z"/>
</g>
<g>
	<rect x="370.4" y="484.4" width="128.6" height="7.8"/>
	<path d="M131.4,399c10.9,11.1,18.4,27.6,18.4,45.3c0,0,3.2-5.3,8-11.1c4.8-5.8,7.3-13.8,7.3-13.8s-1.7-3.1-8.9-10.4
		c-7.2-7.3-12.6-10.1-12.6-10.1H131.4z"/>
	<path d="M131.4,492.2c10.9-10.9,18.4-26.8,18.4-45.2c0,0,7.5,6.6,11.1,11.1c3.6,4.4,6.3,10.7,6.3,10.7s-7.3,8.7-13.8,15.2
		c-5.5,5.6-8.2,8.2-8.2,8.2H131.4z"/>
	<path d="M172.6,425.8c-2.9,7.5-9.7,16.5-11.8,19.4c4.6,4.9,10.1,11.1,14,17.9c7-6.8,11.4-13.1,14.8-18.9
		C184.6,438,182,434.1,172.6,425.8L172.6,425.8z"/>
	<path d="M158.8,399H181c0,0,15.8,10.9,19.6,16.7c-2.7,8.2-9.4,17.4-9.4,17.4s-8.5-10.7-14.7-17.9C169.7,407.2,158.8,399,158.8,399
		L158.8,399z"/>
	<path d="M195.8,399h27.6c0,0-1.5,3.9-4.3,9.4c-2.7,5.5-4.8,8.3-4.8,8.3s-3.1-5.6-8.5-10.2C200.4,401.8,195.8,399,195.8,399
		L195.8,399z"/>
	<path d="M207.9,420.3c0,0-2.4,6-5.6,11.8s-8.2,13.1-8.2,13.1s5.3,4.6,9,10.4c3.6,5.5,7.7,13.6,7.7,13.6s3.7-6.5,7.3-12.1
		c2.9-4.6,6.5-10.9,6.5-10.9s-4.4-8.3-8.3-14.8C212.8,425.8,207.9,420.3,207.9,420.3L207.9,420.3z"/>
	<path d="M203.3,471.1c0,0-2.4-4.3-5.8-8.2c-3.4-3.9-7-6.5-7-6.5s-7,9.9-14.1,17.6c-7.7,8-16.7,18.2-16.7,18.2h24.2
		c0,0,7.8-6.3,12.1-11.6C200.1,475.5,203.3,471.1,203.3,471.1L203.3,471.1z"/>
	<path d="M196,492.2c0,0,7-4.9,11.2-10.2c4.1-5.1,7.3-9.9,7.3-9.9s3.1,7,5.5,10.9c2.6,4.4,5.1,9.2,5.1,9.2L196,492.2L196,492.2z"/>
	<path d="M221,468.2c0,0,4.4,4.8,6.3,9.4c2,5.5,3.9,11.2,3.9,11.2s4.4-3.9,9.4-10.4c4.3-5.6,6.3-8.2,6.3-8.2s-3.1-5.3-7.7-10.6
		c-4.8-5.6-9-8-9-8s-2.4,5.5-4.1,8.5C224.1,463.8,221,468.2,221,468.2L221,468.2z"/>
	<path d="M230.2,399c0,0-1,5.6-3.7,11.1c-2.4,4.9-6.6,10.6-6.6,10.6s2.4,1.5,4.9,5.8c3.2,5.5,4.1,10.6,4.1,10.6s4.4-4.3,10.2-9.7
		c5.5-5.5,8.7-9.9,8.7-9.9s-4.8-6.5-9.2-10.9C233.8,401.8,230.2,399,230.2,399L230.2,399z"/>
	<path d="M253.2,421.2c0,0-3.6,6.6-8.2,11.4c-5.5,5.6-9.4,9.7-9.4,9.7s5.1,4.9,8.7,9.7c4.1,5.5,8,11.8,8,11.8s7.3-4.8,10.2-13.1
		c2.6-7.3,5.8-9.5,5.8-9.5s-3.9-7.2-7.7-12.6C257,422.9,253.2,421.2,253.2,421.2L253.2,421.2z"/>
	<path d="M258,474.9c0,0-2.6,3.8-6.5,7.5c-3.7,3.6-10.2,9.9-10.2,9.9h29.6c0,0-1.9-4.4-5.6-9C260.7,477.6,258,474.9,258,474.9
		L258,474.9z"/>
	<path d="M264.5,466.2c0,0,5.1-4.3,7.5-10.2c2.2-5.3,2.6-8,2.6-8s5.5,6.6,10.1,12.1c4.4,5.5,7,10.4,7,10.4
		c-2.7,3.7-12.6,18.9-12.6,21.8c0,0-4.4-9.2-7.3-14.7C269.1,472.8,265.8,467.5,264.5,466.2L264.5,466.2z"/>
	<path d="M281.9,442.3c0,0,4.8-3.6,8.4-9.2c3.7-5.5,6.6-12.8,6.6-12.8s5.6,5.5,9,13.8c3.1,7.3,5.6,10.2,5.6,10.2s-2,2.7-6.3,9.5
		c-4.1,6.3-6.6,12.4-6.6,12.4s-4.3-8-9-14.5C284.9,445.5,281.9,442.3,281.9,442.3L281.9,442.3z"/>
	<path d="M289.2,492.2c0,0,5.5-4.8,8.4-10.4c2.6-4.6,3.6-7.3,3.6-7.3s2.9,5.3,5.5,9c2,2.9,5.6,8.7,5.6,8.7L289.2,492.2L289.2,492.2z
		"/>
	<path d="M316.1,451.7c0,0-3.4,4.9-5.5,8.5c-1.7,3.1-3.7,7.2-3.7,7.2s6.3,8.5,9.2,14c2.6,4.8,3.8,6.5,3.8,6.5s4.8-7,7.3-12.6
		c2.2-4.6,3.2-5.6,3.2-5.6s-2.4-4.1-7-10.6C318.8,452.5,316.1,451.7,316.1,451.7L316.1,451.7z"/>
	<path d="M243.9,399h23c0,0,0,3.7-2.7,9.2c-3.6,6.6-2.7,9.2-2.7,9.2s-6.1-4.6-10.2-10.2C247.8,402.6,243.9,399,243.9,399L243.9,399z
		"/>
	<path d="M275.4,399c0,0-0.2,6.6-2.6,10.6c-2.2,3.7-6.6,9.7-6.6,9.7s4.1,4.9,5.5,9c1.4,4.3,4.8,9.5,4.8,9.5s9-9,11.4-14
		c2.2-4.6,3.2-7.5,3.2-7.5s-2.7-3.6-6.3-8.3C280.7,402.6,275.4,399,275.4,399L275.4,399z"/>
	<path d="M288.5,399h21.1c0,0-3.6,2.7-5.5,7.5c-1.7,4.4-3.1,6.3-3.1,6.3s-1.9-0.7-5.3-6.3C292.9,401.9,288.5,399,288.5,399
		L288.5,399z"/>
	<path d="M317.1,399c0,0-0.7,4.8-2.9,8.3c-2.4,3.7-8.3,10.1-8.3,10.1s2.6,2.6,5.6,8.3c3.4,6.3,3.6,9.2,3.6,9.2s5.3-2.9,8.3-7.3
		c2.6-3.9,5.8-10.2,5.8-10.2s0.2-4.8-3.9-10.1C321,401.6,317.1,399,317.1,399L317.1,399z"/>
	<path d="M336.5,420.3c0,0-1,5.5-4.8,10.2c-3.6,4.4-10.9,10.9-10.9,10.9s8.2,6.6,10.9,12.1c2.7,5.5,6.5,11.9,6.5,11.9
		s3.2-6.6,6.6-13c4.1-7.5,6.6-9,6.6-9s-6-8.3-9.5-14C338.9,424.8,336.5,420.3,336.5,420.3L336.5,420.3z"/>
	<path d="M340.8,473.7c0,0-2.4,5.8-5.5,9.2c-3.4,3.9-6.3,9.4-6.3,9.4h21.1c0,0-1.2-5.6-2.9-9.4C345.2,478.3,340.8,473.7,340.8,473.7
		L340.8,473.7z"/>
	<path d="M346.6,466.3c0,0,3.9,2.7,6.6,8.3s4.4,17.6,4.4,17.6s4.6-6.3,6.5-12.8c1.7-5.6,5.8-8.9,5.8-8.9s-0.9-4.4-5.8-10.6
		c-4.4-5.6-8.4-9.4-8.4-9.4s-0.7,4.1-3.6,8.4C348.8,463.9,346.6,466.3,346.6,466.3L346.6,466.3z"/>
	<path d="M328.7,399h20.4c0,0-1.4,1.9-2.7,7.7c-1.2,5.6-3.7,9.9-3.7,9.9s-6.1-4.4-8.5-9.4C331.9,402.9,328.7,399,328.7,399
		L328.7,399z"/>
	<path d="M357.7,399c0,0-0.2,5.3-3.1,10.6c-2.7,4.9-6.8,10.1-6.8,10.1s2.6,4.4,5.3,9.9c2.7,5.5,4.6,7.3,4.6,7.3s7.2-5.6,9.2-9.2
		c2.7-4.8,3.7-8.3,3.7-8.3s-1.4-4.3-5.6-10.9C360.9,402.1,357.7,399,357.7,399L357.7,399z"/>
	<path d="M375.2,423.1c0,0-0.5,4.6-4.8,10.4c-3.6,4.9-9.4,10.9-9.4,10.9s4.4,2.9,8.4,9.4c4.4,7.3,6.5,12.6,6.5,12.6
		s3.2-5.8,7.7-11.9c4.1-5.8,6.3-9.2,6.3-9.2s-1.7-5.5-5.5-10.1C379.8,429.4,375.2,423.1,375.2,423.1L375.2,423.1z"/>
	<rect x="371.4" y="399" width="126.6" height="7.7"/>
	<rect x="381.9" y="473.8" width="106.7" height="4.1"/>
	<rect x="396.6" y="444" width="76.2" height="3.1"/>
	<rect x="394.2" y="453.6" width="82" height="3.4"/>
	<rect x="387.6" y="463.5" width="94.2" height="3.8"/>
	<rect x="381.9" y="413.2" width="106.7" height="4.1"/>
	<rect x="394.4" y="434.1" width="82" height="3.4"/>
	<rect x="388.8" y="423.8" width="94.2" height="3.7"/>
	<path d="M70.9,429.5c8.3-14.8,27.8-26.9,51.8-30.5c10.9,11.9,18.4,28.6,18.4,47.2c0,18.6-7.5,35.1-18.4,46
		c-24-3.4-43.5-14.7-51.8-29.5c3.7-6.3,9.2-12.1,14.8-16.5C79.3,441.5,74.7,436,70.9,429.5L70.9,429.5z M99.7,443.7
		c0,6.5,5.1,11.6,11.6,11.6c6.5,0,11.6-5.1,11.6-11.6s-5.1-11.6-11.6-11.6C104.8,432.1,99.7,437.2,99.7,443.7L99.7,443.7z"/>
	<g>
		<path d="M163.6,391.5c-1.1,1.1-3,1.3-4.6-0.2c-1.5-1.5-1.3-3.2-0.2-4.6l24.6-27.2c1.9-1.9,5.1-2.5,7.6,0.2
			c2.5,2.7,1.9,5.5-0.2,7.6L163.6,391.5L163.6,391.5z"/>
		<path d="M190,391.3c-1.1,1.1-3.2,1.7-5,0c-1.7-1.7-1.3-3-0.2-4.4l24.2-27.8c1.7-1.9,5.1-2.5,7.6,0.2c2.5,2.7,1.9,5.3-0.2,7.6
			L190,391.3L190,391.3z"/>
		<path d="M215.6,391.3c-1.1,1.1-3,1.7-4.8,0c-1.7-1.7-1.5-3-0.4-4.6l23.6-28c1.5-1.9,4.8-2.5,7.6,0.2c2.9,2.7,1.9,5.1-0.2,7.6
			L215.6,391.3L215.6,391.3z"/>
		<path d="M241.6,391.5c-1.1,1.1-3,1.1-4.6-0.4c-1.5-1.5-1.7-2.7-0.6-4.4l23.4-28.6c1.3-1.9,5-3.2,8-0.2c3,3,1.7,5.7-0.6,8
			L241.6,391.5L241.6,391.5z"/>
		<path d="M268.2,391.3c-1.1,1.1-3.2,1.7-5,0c-1.7-1.7-1.7-2.7-0.6-4.6l22.9-28.8c1.1-1.9,4.8-3,7.8-0.2c3,2.9,1.7,5.7-0.4,8
			L268.2,391.3L268.2,391.3z"/>
		<path d="M293.8,391.3c-1.1,1.1-3,1.7-5,0c-1.9-1.7-1.7-2.7-0.6-4.8l22.1-29c1.1-1.9,4.4-3,7.6-0.4c3.2,2.7,2.3,5.7,0,8.2
			L293.8,391.3L293.8,391.3z"/>
		<path d="M318.8,391.4c-1.1,1.1-3.2,1.5-5,0c-1.7-1.5-2.1-2.5-1-4.8l21.7-29.3c1.1-1.9,4.6-2.7,7.4-0.2c2.9,2.5,3,5.1,0.4,8
			L318.8,391.4z"/>
		<path d="M344,391.7c-1.1,1.1-3,0.8-4.6-0.4c-1.5-1.1-2.5-1.9-1.3-4.4l21.3-30.1c1.1-1.9,4.6-2.3,7.2,0c2.7,2.3,3,4.8,0.8,7.8
			L344,391.7L344,391.7z"/>
	</g>
	<g>
		<path d="M163.6,498.8c-1.1-1.1-3-1.3-4.6,0.2s-1.3,3.2-0.2,4.6l24.6,27.2c1.9,1.9,5.1,2.5,7.6-0.2c2.5-2.7,1.9-5.5-0.2-7.6
			L163.6,498.8L163.6,498.8z"/>
		<path d="M190,499c-1.1-1.1-3.2-1.7-5,0c-1.7,1.7-1.3,3-0.2,4.4l24.2,27.8c1.7,1.9,5.1,2.5,7.6-0.2c2.5-2.7,1.9-5.3-0.2-7.6
			L190,499L190,499z"/>
		<path d="M215.6,499c-1.1-1.1-3-1.7-4.8,0c-1.7,1.7-1.5,3-0.4,4.6l23.6,28c1.5,1.9,4.8,2.5,7.6-0.2c2.9-2.7,1.9-5.1-0.2-7.6
			L215.6,499L215.6,499z"/>
		<path d="M241.6,498.7c-1.1-1.1-3-1.1-4.6,0.4c-1.5,1.5-1.7,2.7-0.6,4.4l23.4,28.6c1.3,1.9,5,3.2,8,0.2c3-3,1.7-5.7-0.6-8
			L241.6,498.7L241.6,498.7z"/>
		<path d="M268.2,499c-1.1-1.1-3.2-1.7-5,0c-1.7,1.7-1.7,2.7-0.6,4.6l22.9,28.8c1.1,1.9,4.8,3,7.8,0.2c3-2.9,1.7-5.7-0.4-8
			L268.2,499L268.2,499z"/>
		<path d="M293.8,499c-1.1-1.1-3-1.7-5,0c-1.9,1.7-1.7,2.7-0.6,4.8l22.1,29c1.1,1.9,4.4,3,7.6,0.4c3.2-2.7,2.3-5.7,0-8.2L293.8,499
			L293.8,499z"/>
		<path d="M318.8,498.9c-1.1-1.1-3.2-1.5-5,0c-1.7,1.5-2.1,2.5-1,4.8l21.7,29.3c1.1,1.9,4.6,2.7,7.4,0.2c2.9-2.5,3-5.1,0.4-8
			L318.8,498.9z"/>
		<path d="M344,498.6c-1.1-1.1-3-0.8-4.6,0.4c-1.5,1.1-2.5,1.9-1.3,4.4l21.3,30.1c1.1,1.9,4.6,2.3,7.2,0c2.7-2.3,3-4.8,0.8-7.8
			L344,498.6L344,498.6z"/>
	</g>
</g>
</svg>
