<svg id="Ebene_1" data-name="Ebene 1" xmlns="http://www.w3.org/2000/svg" viewBox="0 0 57.51 56.76"><title>newsletter-icon</title><path d="M30,58.38H5.1l-.67,0a.28.28,0,0,1-.28-.19c0-.14,0-.22.12-.31l4.22-3.6L13,50.4l3.36-2.88,3.42-3c1.22-1.05,2.44-2.11,3.66-3.16a.59.59,0,0,1,.78,0c1.1.71,2.21,1.4,3.32,2.1.59.37,1.19.74,1.77,1.13a1.11,1.11,0,0,0,1.3.1c1-.65,2.08-1.34,3.12-2l2.2-1.38a.55.55,0,0,1,.7.09l5.22,4.5,4.05,3.46,5.93,5.12,3.84,3.29c.13.11.29.18.2.39s-.26.17-.42.17H30Z" transform="translate(-1.25 -1.62)"/><path d="M1.25,41.88q0-7,0-14.06c0-.13,0-.27,0-.4s.11-.3.35-.22a8.32,8.32,0,0,1,1.19.71c.91.53,1.8,1.11,2.69,1.67l3.16,2,2.5,1.56,2.42,1.52,2.57,1.61c.77.48,1.55.95,2.31,1.44s1.64,1.09,2.46,1.62c.22.14.23.25.08.46a4.06,4.06,0,0,1-.75.7q-4.39,3.8-8.79,7.58c-1.86,1.6-3.74,3.17-5.6,4.77L1.69,56.44c-.1.08-.18.25-.33.18s-.1-.27-.1-.41c0-.94,0-1.89,0-2.83Q1.25,47.63,1.25,41.88Z" transform="translate(-1.25 -1.62)"/><path d="M58.73,41.89q0,7,0,14.06c0,.22.1.53-.08.63s-.41-.19-.57-.33c-1.83-1.56-3.65-3.14-5.47-4.71s-3.77-3.27-5.67-4.9q-3.83-3.28-7.67-6.55c-.42-.36-.44-.53,0-.84.82-.56,1.68-1.08,2.52-1.61l3.28-2.08c.84-.53,1.7-1,2.54-1.58,1-.66,2.08-1.34,3.12-2l2.46-1.55,2.54-1.59c.79-.5,1.58-1,2.38-1.5.54-.32.62-.26.62.36Q58.73,34.8,58.73,41.89Z" transform="translate(-1.25 -1.62)"/><path d="M57.35,24.06c-.92-.75-1.83-1.53-2.75-2.29l-5.13-4.26-5.18-4.26L39.13,9,33.81,4.57,30.42,1.79a.59.59,0,0,0-.82,0q-2,1.61-3.95,3.23c-1.35,1.11-2.68,2.25-4,3.36-2.09,1.72-4.19,3.41-6.27,5.13S11.24,17,9.18,18.67,5,22.12,2.88,23.84c-.49.4-.49.55,0,.91,1,.66,2,1.3,3.06,1.94l3.23,2,4,2.53c1,.65,2.06,1.32,3.1,2,1.34.81,2.64,1.68,4,2.52l3.37,2.12,2.27,1.44c.87.55,1.74,1.1,2.62,1.62a3.83,3.83,0,0,0,1.44.77,1,1,0,0,0,.56-.17l1.56-1,4-2.53c1-.66,2.1-1.3,3.15-2l3.88-2.49,3.4-2.15,3.22-2,3.06-1.93c.84-.53,1.69-1.05,2.53-1.6.66-.43,1.36-.8,2-1.3C57.53,24.36,57.58,24.26,57.35,24.06ZM38.92,22.13a8.72,8.72,0,0,1-.65,1.5,11.66,11.66,0,0,1-1.13,1.71,23.23,23.23,0,0,1-3.07,3,20.32,20.32,0,0,1-1.88,1.44c-.46.32-.94.62-1.42.92a4.12,4.12,0,0,1-.58.28.55.55,0,0,1-.46,0,10.43,10.43,0,0,1-1.39-.8,24.43,24.43,0,0,1-2.25-1.68c-.77-.65-1.52-1.33-2.25-2A10.2,10.2,0,0,1,22,24.13a9.33,9.33,0,0,1-.91-1.94,7.08,7.08,0,0,1-.44-2.53,6,6,0,0,1,.3-1.94,4.31,4.31,0,0,1,1.36-2.2,4.2,4.2,0,0,1,1.18-.69,5.91,5.91,0,0,1,2.85-.42,4.2,4.2,0,0,1,1.33.41,4.14,4.14,0,0,1,1.23.86,3.1,3.1,0,0,1,.83,1.21.25.25,0,0,0,.25.2.27.27,0,0,0,.27-.2A3.9,3.9,0,0,1,31.8,15.1a4.4,4.4,0,0,1,3.31-.67,5.09,5.09,0,0,1,2.12.74,4.13,4.13,0,0,1,1.4,1.53,7.3,7.3,0,0,1,.74,3.4A6.75,6.75,0,0,1,38.92,22.13Z" transform="translate(-1.25 -1.62)"/></svg>