<svg id="Ebene_1" data-name="Ebene 1" xmlns="http://www.w3.org/2000/svg" viewBox="0 0 45.87 45.87"><title>rotholz-organic-cotton</title><path d="M25,47.34A22.93,22.93,0,1,1,47.9,24.4,23,23,0,0,1,25,47.34ZM25,3.47A20.93,20.93,0,1,0,45.9,24.4,21,21,0,0,0,25,3.47Z" transform="translate(-2.03 -1.47)"/><path d="M38.73,27.08c-.1.44-.14.88-.26,1.32a6.72,6.72,0,0,1-8.21,4.67.61.61,0,0,0-.32,0,6.24,6.24,0,0,1-1.7.11,1.75,1.75,0,0,0-.57.1,6.18,6.18,0,0,1-1.62.37c-.19,0-.24.09-.23.28a7.51,7.51,0,0,0,.64,2.79,1,1,0,1,1-1.79.89,6.6,6.6,0,0,1-.76-2.45c-.06-.44-.08-.88-.11-1.32,0-.1,0-.22-.13-.22a11.31,11.31,0,0,1-1.68-.4,4.15,4.15,0,0,0-.7,0A4.41,4.41,0,0,1,20,33a.78.78,0,0,0-.43,0,6.65,6.65,0,0,1-6.34-11.19.56.56,0,0,0,.17-.61A5.61,5.61,0,0,1,16.18,15a5.5,5.5,0,0,1,2.89-.65.42.42,0,0,0,.45-.26,6.05,6.05,0,0,1,4.77-3.36A5.81,5.81,0,0,1,28.69,12a5.61,5.61,0,0,1,1.73,2.15.29.29,0,0,0,.33.2,5.21,5.21,0,0,1,2.78.58,5.47,5.47,0,0,1,3.12,5.21c0,.38-.08.76-.12,1.14a.92.92,0,0,0,.3.8,6.49,6.49,0,0,1,1.85,4,1,1,0,0,0,0,.16Zm-6.06,4.58a5,5,0,0,0,1.55-.46,5.05,5.05,0,0,0,1.86-7.61,7.57,7.57,0,0,0-.89-.94,1.12,1.12,0,0,1-.34-1.37,3.25,3.25,0,0,0,.23-1.12A4,4,0,0,0,30.22,16a.79.79,0,0,1-1-.59l-.1-.27a4.44,4.44,0,0,0-8-.67,9.13,9.13,0,0,0-.52,1.15.62.62,0,0,1-.67.41,10.38,10.38,0,0,0-1-.11A4,4,0,0,0,15,21.15a1.37,1.37,0,0,1-.48,1.7A5,5,0,0,0,15,30.8a4.67,4.67,0,0,0,2.23.81c-.13-.12-.24-.2-.34-.3a10.24,10.24,0,0,1-2.53-4.7.77.77,0,0,1,.81-1,9.37,9.37,0,0,1,.94.06,11.06,11.06,0,0,1,3.76,1A6.56,6.56,0,0,1,21.76,28a9.57,9.57,0,0,1,2.3-4.34,1,1,0,0,1,1.76,0,9.42,9.42,0,0,1,1.72,2.58A12,12,0,0,1,28.15,28a6.55,6.55,0,0,1,1.43-1.14,11,11,0,0,1,5-1.28.83.83,0,0,1,.9,1.17A12.42,12.42,0,0,1,34.1,30,9.18,9.18,0,0,1,32.66,31.66Zm-6-2.23a6.89,6.89,0,0,0-1.6-4.17c-.09-.12-.14-.12-.24,0a6.71,6.71,0,0,0-1.59,4.29,2.73,2.73,0,0,0,1.33,2.37.63.63,0,0,0,.78,0A2.76,2.76,0,0,0,26.66,29.43ZM16.25,27.32a10.15,10.15,0,0,0,1,2,4.76,4.76,0,0,0,4.53,2.24c.2,0,.24-.07.15-.24s-.28-.58-.43-.87C20.41,28.35,18.53,27.54,16.25,27.32Zm17.37,0a7.12,7.12,0,0,0-1.34.24A5.77,5.77,0,0,0,28,31.26c-.08.19-.07.27.16.25s.51,0,.77,0a4,4,0,0,0,2.59-.94,7.36,7.36,0,0,0,1.85-2.51A3.27,3.27,0,0,0,33.63,27.31Z" transform="translate(-2.03 -1.47)"/></svg>