<svg id="Ebene_1" data-name="Ebene 1" xmlns="http://www.w3.org/2000/svg" viewBox="0 0 262.76 77.53"><title>Var2_Rotholz-Logo</title><path d="M16.39,16h6.82a6.1,6.1,0,0,1,2.86.52q1.7.92,1.7,3.61A3.32,3.32,0,0,1,26,23.47,7,7,0,0,1,23,24H16.39ZM36.85,40.49,29.26,27.4a10.18,10.18,0,0,0,3.64-4A8.9,8.9,0,0,0,34,19.3a8.25,8.25,0,0,0-.55-3.11,9.21,9.21,0,0,0-1.49-2.49,7.34,7.34,0,0,0-2.77-2.07,12.84,12.84,0,0,0-4.67-.76H10.35V40.44h6V28.85h6l.52,0,6.5,11.61Z" transform="translate(-10.35 -10.84)"/><path d="M65.4,35.53A6.77,6.77,0,0,1,59.85,33q-2.07-2.57-2.07-7.3t2.07-7.3A6.77,6.77,0,0,1,65.4,15.8a6.69,6.69,0,0,1,5.52,2.57q2,2.58,2,7.29t-2,7.3a6.69,6.69,0,0,1-5.52,2.56m13.42-9.87q0-7.69-4.24-11.56-3.17-3.27-9.18-3.27T56.22,14.1Q52,18,52,25.66t4.26,11.56q3.18,3.27,9.18,3.27t9.18-3.27q4.24-4,4.24-11.56m15-14v5h8.42V39.71h5.89V16.65h8.38v-5Zm44.74,28V27.2h10.89V39.71h5.82v-28h-5.82V22.37H138.53V11.69h-5.82v28Zm47.57-4.18A6.77,6.77,0,0,1,180.55,33q-2.07-2.57-2.07-7.3t2.07-7.3a6.77,6.77,0,0,1,5.55-2.57,6.69,6.69,0,0,1,5.52,2.57q2,2.58,2,7.29t-2,7.3a6.69,6.69,0,0,1-5.52,2.56m13.42-9.87q0-7.69-4.24-11.56-3.17-3.27-9.18-3.27t-9.18,3.27q-4.26,3.86-4.26,11.56t4.26,11.56q3.17,3.27,9.18,3.27t9.18-3.27q4.24-4,4.24-11.56m17.31,14h19.84v-5h-14v-23h-5.85Zm34.65,0h21.63V34.77H258.57l14.5-18.38v-4.7H251.84v5h14L251.48,34.77Z" transform="translate(-10.35 -10.84)"/><path d="M50.47,83.77a3.42,3.42,0,0,0,1,2.74,3.57,3.57,0,0,0,2.3.71l.74,0a20.48,20.48,0,0,0,14.93-9.84,1.75,1.75,0,0,0,.19-.71,1.16,1.16,0,0,0-.52-1,1.25,1.25,0,0,0-.66-.22,1.14,1.14,0,0,0-1,.66,18.46,18.46,0,0,1-12.91,8.6,1.9,1.9,0,0,1-.36,0c-.88,0-1.29-.46-1.29-1.56L53,66.67a1.24,1.24,0,0,0-2.46,0ZM83.37,72a1,1,0,0,0-.71.9.7.7,0,0,0,.11.38A36.38,36.38,0,0,1,85,78.81a.94.94,0,0,0,1,.69,1.28,1.28,0,0,0,.44-.09.93.93,0,0,0,.77-.9,2.48,2.48,0,0,0-.05-.41,37,37,0,0,0-2.27-5.67,1,1,0,0,0-.91-.57,1.18,1.18,0,0,0-.52.11m5.78-1.1a1,1,0,0,0-.71.88.77.77,0,0,0,.11.41,32.18,32.18,0,0,1,2.06,5.42.87.87,0,0,0,.93.63,2.85,2.85,0,0,0,.46,0,1,1,0,0,0,.74-.94.86.86,0,0,0,0-.27,28.5,28.5,0,0,0-2.14-5.59,1,1,0,0,0-.93-.6,1.08,1.08,0,0,0-.49.11m9.84.47h-.14a.92.92,0,0,0-1,.85,19.1,19.1,0,0,1-3,8.88,14.32,14.32,0,0,1-8.06,5.12.91.91,0,0,0-.77.91,2,2,0,0,0,.06.41,1,1,0,0,0,1,.74,1.16,1.16,0,0,0,.3,0,15.92,15.92,0,0,0,9.21-5.81A20.2,20.2,0,0,0,100,72.56v-.19c0-.6-.36-.93-1-1m20.3,4.22a75.42,75.42,0,0,1,12.33,4.88,1.47,1.47,0,0,0,.58.14,1.18,1.18,0,0,0,1.1-.8,1.65,1.65,0,0,0,.11-.6,1.19,1.19,0,0,0-.74-1.15,82.22,82.22,0,0,0-13.37-4.91v-7c0-.77-.52-1.07-1.2-1.07s-1.21.3-1.21,1V87.33c0,.74.47,1,1.21,1s1.2-.3,1.2-1Zm8.14-9.37a1,1,0,0,0-.38.77.88.88,0,0,0,.22.55,26.27,26.27,0,0,1,2.08,2.66,1,1,0,0,0,.77.38,1.17,1.17,0,0,0,.66-.22.92.92,0,0,0,.36-.74,1,1,0,0,0-.19-.63,26.92,26.92,0,0,0-2.19-2.69A1.09,1.09,0,0,0,128,66a1,1,0,0,0-.6.22m30.85,2.93v-3c0-.71-.5-1.07-1.24-1.07s-1.21.38-1.21,1v3h-6c-1.92,0-2.93.93-2.93,2.82v4.85a1.13,1.13,0,0,0,1.26,1.07,1,1,0,0,0,1.18-1.1V72.4c0-.9.3-1.15,1.34-1.15h13.29c1,0,1.35.3,1.35,1.15v.22a14,14,0,0,1-3,8.6c-2,2.33-5.1,4-9.07,4.85a1.1,1.1,0,0,0-.91,1.12,2.58,2.58,0,0,0,.06.41,1.05,1.05,0,0,0,1.1.76,1.57,1.57,0,0,0,.35,0,18.08,18.08,0,0,0,9.81-5,16.35,16.35,0,0,0,4.19-10.71v-.36c0-2-.93-3.12-3.29-3.12ZM182,72a1,1,0,0,0-.71.9.66.66,0,0,0,.11.38,36.66,36.66,0,0,1,2.19,5.56.94.94,0,0,0,1,.69,1.27,1.27,0,0,0,.44-.09.93.93,0,0,0,.77-.9,3.5,3.5,0,0,0-.05-.41,37,37,0,0,0-2.28-5.67,1,1,0,0,0-.9-.57A1.2,1.2,0,0,0,182,72m5.78-1.1a1,1,0,0,0-.71.88.78.78,0,0,0,.11.41,31.47,31.47,0,0,1,2.06,5.42.88.88,0,0,0,.93.63,2.85,2.85,0,0,0,.46,0,1,1,0,0,0,.74-.94,1.28,1.28,0,0,0,0-.27,28.43,28.43,0,0,0-2.14-5.59,1,1,0,0,0-.93-.6,1.07,1.07,0,0,0-.49.11m9.84.47h-.14a.92.92,0,0,0-1,.85,19.09,19.09,0,0,1-3,8.88,14.31,14.31,0,0,1-8.05,5.12.9.9,0,0,0-.77.91,2.13,2.13,0,0,0,.05.41,1,1,0,0,0,1,.74,1.22,1.22,0,0,0,.31,0,15.93,15.93,0,0,0,9.2-5.81,20.17,20.17,0,0,0,3.42-9.84v-.19c0-.6-.35-.93-1-1m20.3,4.22a75.68,75.68,0,0,1,12.33,4.88,1.43,1.43,0,0,0,.57.14,1.18,1.18,0,0,0,1.1-.8,1.71,1.71,0,0,0,.11-.6,1.19,1.19,0,0,0-.74-1.15,82.23,82.23,0,0,0-13.37-4.91v-7c0-.77-.52-1.07-1.2-1.07s-1.21.3-1.21,1V87.33c0,.74.46,1,1.21,1s1.2-.3,1.2-1ZM226,66.18a1,1,0,0,0-.38.77.88.88,0,0,0,.22.55A26.12,26.12,0,0,1,228,70.15a1,1,0,0,0,.76.38,1.16,1.16,0,0,0,.66-.22.93.93,0,0,0,.36-.74,1,1,0,0,0-.19-.63,27,27,0,0,0-2.19-2.69,1.09,1.09,0,0,0-.71-.3,1.06,1.06,0,0,0-.61.22" transform="translate(-10.35 -10.84)"/><path d="M131.08,63.78a.84.84,0,0,0-.41.74,1,1,0,0,0,.25.6,17.7,17.7,0,0,1,2,2.5,1,1,0,0,0,.8.44,1.13,1.13,0,0,0,.6-.19.94.94,0,0,0,.38-.74,1.05,1.05,0,0,0-.22-.63,17.74,17.74,0,0,0-2.06-2.57,1.15,1.15,0,0,0-.77-.3,1,1,0,0,0-.55.16" transform="translate(-10.35 -10.84)"/><path d="M229.7,63.84a.84.84,0,0,0-.41.74,1,1,0,0,0,.25.6,17.89,17.89,0,0,1,2,2.5,1,1,0,0,0,.8.44,1.09,1.09,0,0,0,.6-.19.94.94,0,0,0,.39-.74,1.06,1.06,0,0,0-.22-.63A17.75,17.75,0,0,0,231,64a1.15,1.15,0,0,0-.76-.3,1,1,0,0,0-.55.16" transform="translate(-10.35 -10.84)"/></svg>