<svg id="Ebene_1" data-name="Ebene 1" xmlns="http://www.w3.org/2000/svg" viewBox="0 0 45.77 45.49"><title>rotholz-made-in-europe</title><polygon points="20.93 5.94 22.83 4.54 24.75 5.92 24.01 3.67 25.95 2.27 23.56 2.28 22.82 0 22.09 2.29 19.7 2.29 21.65 3.68 20.93 5.94 20.93 5.94"/><polygon points="11.05 8.63 12.96 7.23 14.87 8.62 14.14 6.36 16.07 4.96 13.68 4.97 12.94 2.69 12.21 4.98 9.82 4.99 11.77 6.37 11.05 8.63 11.05 8.63"/><polygon points="5.73 9.97 5.01 12.26 2.62 12.26 4.56 13.65 3.84 15.91 5.75 14.51 7.67 15.89 6.93 13.64 8.86 12.24 6.47 12.25 5.73 9.97 5.73 9.97"/><polygon points="3.13 24.39 5.05 25.78 4.31 23.52 6.25 22.12 3.86 22.13 3.12 19.85 2.39 22.14 0 22.15 1.95 23.53 1.23 25.79 3.13 24.39 3.13 24.39"/><polygon points="6.55 32.03 5.8 29.74 5.08 32.03 2.69 32.04 4.63 33.43 3.92 35.68 5.82 34.28 7.74 35.67 7 33.42 8.94 32.02 6.55 32.03 6.55 32.03"/><polygon points="13.82 39.25 13.08 36.97 12.36 39.25 9.96 39.26 11.91 40.65 11.19 42.91 13.1 41.5 15.01 42.89 14.28 40.64 16.21 39.24 13.82 39.25 13.82 39.25"/><polygon points="23.7 41.84 22.96 39.55 22.24 41.84 19.85 41.85 21.79 43.24 21.07 45.49 22.98 44.09 24.89 45.48 24.16 43.23 26.09 41.83 23.7 41.84 23.7 41.84"/><polygon points="33.57 39.17 32.83 36.9 32.1 39.18 29.71 39.19 31.66 40.58 30.94 42.83 32.84 41.43 34.76 42.82 34.02 40.57 35.96 39.16 33.57 39.17 33.57 39.17"/><polygon points="40.79 31.9 40.05 29.62 39.32 31.91 36.94 31.91 38.88 33.3 38.16 35.56 40.07 34.16 41.98 35.54 41.24 33.29 43.18 31.89 40.79 31.9 40.79 31.9"/><polygon points="45.77 21.95 43.38 21.96 42.64 19.68 41.91 21.97 39.52 21.97 41.47 23.36 40.75 25.62 42.65 24.21 44.57 25.6 43.83 23.35 45.77 21.95 45.77 21.95"/><polygon points="38.09 15.75 39.99 14.35 41.91 15.74 41.17 13.48 43.11 12.09 40.72 12.1 39.98 9.81 39.25 12.1 36.86 12.11 38.81 13.49 38.09 15.75 38.09 15.75"/><polygon points="32.73 2.62 32.01 4.91 29.61 4.91 31.56 6.3 30.84 8.56 32.75 7.16 34.66 8.55 33.93 6.29 35.86 4.89 33.47 4.9 32.73 2.62 32.73 2.62"/><path d="M23.49,21.21l-5,0v2l4.62,0v1.65l-4.62,0v2.44l5.26,0V29l-7.2,0,0-9.51,7,0Z" transform="translate(-1.83 -1.66)"/><path d="M25.26,19.52h2l0,5.84a3.31,3.31,0,0,0,.24,1.43,1.54,1.54,0,0,0,1.57.79,1.53,1.53,0,0,0,1.56-.81,3.31,3.31,0,0,0,.23-1.43l0-5.84h2l0,5.84a4.91,4.91,0,0,1-.46,2.36q-.87,1.55-3.34,1.56t-3.35-1.54a4.9,4.9,0,0,1-.48-2.36Z" transform="translate(-1.83 -1.66)"/></svg>