<svg id="Ebene_1" data-name="Ebene 1" xmlns="http://www.w3.org/2000/svg" viewBox="0 0 45.87 45.87"><title>rotholz-artist-series</title><path d="M25.2,48.34A22.93,22.93,0,1,1,48.13,25.4,23,23,0,0,1,25.2,48.34Zm0-43.87A20.93,20.93,0,1,0,46.13,25.4,21,21,0,0,0,25.2,4.47Z" transform="translate(-2.26 -2.47)"/><path d="M23.23,13.3a14.84,14.84,0,0,1,3.3.4,16.9,16.9,0,0,1,3.06,1.05c.61.27,1.19.61,1.78.93a1,1,0,0,1,.34,1.21.9.9,0,0,1-1.06.4,10.34,10.34,0,0,1-1.25-.63c-.46-.21-.92-.41-1.39-.61a12.62,12.62,0,0,0-2-.61,12.32,12.32,0,0,0-1.73-.29,9.58,9.58,0,0,0-3.43.24A8.57,8.57,0,0,0,16,18.74a9.16,9.16,0,0,0-1.34,2.54,8.86,8.86,0,0,0-.37,4.56c.11.5.18,1,.33,1.51a9.94,9.94,0,0,0,.74,1.8,11.59,11.59,0,0,0,1.34,2A15.86,15.86,0,0,0,19.62,34c.3.21.6.42.62.86a.86.86,0,0,1-.48.87.9.9,0,0,1-1-.09A17.22,17.22,0,0,1,15,31.93a14,14,0,0,1-1.57-2.69,12.16,12.16,0,0,1-1.07-5.11,11.35,11.35,0,0,1,3.51-7.93A10.52,10.52,0,0,1,18,14.67a10.21,10.21,0,0,1,2.8-1.07A8.58,8.58,0,0,1,23.23,13.3Z" transform="translate(-2.26 -2.47)"/><path d="M26.94,34.2a.8.8,0,0,1-.76-.4,1.12,1.12,0,0,1,0-1.07l1.11-2.21c.35-.7.72-1.4,1.07-2.1s.69-1.41,1-2.12l1.06-2.1c.35-.7.69-1.41,1-2.12s.72-1.4,1.07-2.1.69-1.41,1-2.12.71-1.4,1.07-2.1q.39-.77.76-1.54a.89.89,0,0,1,1.18-.46.85.85,0,0,1,.51,1,2.47,2.47,0,0,1-.34.83c-.63,1.25-1.25,2.5-1.87,3.76s-1.19,2.33-1.78,3.51S32,25.18,31.44,26.35s-1.19,2.34-1.78,3.51c-.51,1-1,2-1.5,3.06-.14.29-.29.57-.45.85A.82.82,0,0,1,26.94,34.2Z" transform="translate(-2.26 -2.47)"/><path d="M36.22,27.56a7.86,7.86,0,0,0-1.1-4.16,1.24,1.24,0,0,1,0-1.12,1,1,0,0,1,1-.3c.39.11.53.46.7.77A9.15,9.15,0,0,1,37.74,25a8.51,8.51,0,0,1,.17,3.74,8.29,8.29,0,0,1-.54,1.78,5.37,5.37,0,0,1-1.78,2.16,5.63,5.63,0,0,1-3.39,1c-.6,0-.86-.17-1-.68a.83.83,0,0,1,.52-1,11.25,11.25,0,0,1,1.42-.19,3.38,3.38,0,0,0,2.4-1.69A4.77,4.77,0,0,0,36.22,27.56Z" transform="translate(-2.26 -2.47)"/><path d="M23.05,39.51a5.74,5.74,0,0,1-2.91-.7,2.53,2.53,0,0,1-.62-.48c-.14-.15-.1-.29.11-.34a1.07,1.07,0,0,1,.26,0,2.21,2.21,0,0,0,2-1.26,7.21,7.21,0,0,1,1.62-2.18,5.18,5.18,0,0,1,.92-.55c.34-.16.51-.08.74.22a2.28,2.28,0,0,0,1.66.86c.4,0,.39,0,.41.44a3.79,3.79,0,0,1-1,2.85,3.23,3.23,0,0,1-1.74.94A5.13,5.13,0,0,1,23.05,39.51Z" transform="translate(-2.26 -2.47)"/><path d="M25.65,20.77a1.71,1.71,0,1,1,1.68-1.7A1.71,1.71,0,0,1,25.65,20.77Z" transform="translate(-2.26 -2.47)"/><path d="M21.65,26.89a1.73,1.73,0,0,1-1.7,1.67,1.75,1.75,0,0,1-1.73-1.7,1.71,1.71,0,0,1,1.73-1.71A1.69,1.69,0,0,1,21.65,26.89Z" transform="translate(-2.26 -2.47)"/><path d="M17.66,20.82a1.75,1.75,0,0,1,1.67-1.71,1.71,1.71,0,0,1,1.75,1.7,1.69,1.69,0,0,1-1.72,1.71A1.66,1.66,0,0,1,17.66,20.82Z" transform="translate(-2.26 -2.47)"/></svg>