<svg id="Ebene_1" data-name="Ebene 1" xmlns="http://www.w3.org/2000/svg" viewBox="0 0 45.87 45.87"><title>rotholz-fair-trade</title><path d="M25.7,47.34A22.93,22.93,0,1,1,48.64,24.4,23,23,0,0,1,25.7,47.34Zm0-43.87A20.93,20.93,0,1,0,46.64,24.4,21,21,0,0,0,25.7,3.47Z" transform="translate(-2.77 -1.47)"/><path d="M7.58,21.74c.69-.81,1.52-1.53,2.3-2.3,1.83-1.79,3.68-3.57,5.52-5.34.54-.52.55-.53,1.07,0,1.22,1.26,2.44,2.53,3.67,3.78.23.24.17.4,0,.59-.49.47-.48.49,0,1l.71.75c.5.51.45.51,1.21.21s1.5-.57,2.27-.8,1.56-.4,2.32-.64a2.51,2.51,0,0,1,1.8.24,16.53,16.53,0,0,0,2.78,1,1.17,1.17,0,0,0,.92-.15c.36-.24.38-.41.08-.74s-.36-.41-.55-.6-.15-.35,0-.51l4.06-3.62a.35.35,0,0,1,.58,0c1.1,1.21,2.21,2.41,3.31,3.62,1.34,1.47,2.67,3,4,4.4.25.27.15.41,0,.58-.41.38-.82.75-1.24,1.12-.91.81-1.83,1.61-2.73,2.44-.26.23-.46.26-.68,0l-.15-.16c-.43-.48-.51-.46-.88.06a11,11,0,0,1-1.81,2.13,3.32,3.32,0,0,1-.64.45.38.38,0,0,0-.22.5,2.73,2.73,0,0,1-1.64,3,2.16,2.16,0,0,0-1,.92A2.57,2.57,0,0,1,30,34.93a.58.58,0,0,0-.49.17,2.9,2.9,0,0,1-2.61.81.69.69,0,0,0-.65.29,2.43,2.43,0,0,1-2.49.83,2.06,2.06,0,0,1-.81-.43.41.41,0,0,0-.54,0,1.09,1.09,0,0,1-1.53-.15l-5.82-6A1.06,1.06,0,0,1,15,29a.45.45,0,0,0,0-.7,8.05,8.05,0,0,1-1.31-1.44,5.66,5.66,0,0,1-.47-.87c-.16-.41-.38-.46-.7-.16l-.18.17a.35.35,0,0,1-.58,0L8.4,22.6ZM20.66,31.6c.94-.06,1.24.52,1.13,1.3,0,.12,0,.23-.06.35-.05.32,0,.39.34.33l.21,0a1.24,1.24,0,0,1,1.46,1.7c-.15.35,0,.58.36.67a1.26,1.26,0,0,0,1.18-.35c.22-.2.28-.39,0-.63-.47-.47-.92-1-1.37-1.45a.54.54,0,0,1,.07-.86.51.51,0,0,1,.73.08c.54.54,1.06,1.09,1.6,1.62.17.17.31.4.58.44a1.84,1.84,0,0,0,1.5-.25c.24-.18.29-.37.09-.59s-.42-.42-.62-.63c-.65-.69-1.35-1.33-1.95-2.07a.43.43,0,0,1,0-.59.54.54,0,0,1,.65-.22,1,1,0,0,1,.35.24c.88.91,1.78,1.81,2.65,2.72a1.15,1.15,0,0,0,1.42.28c.81-.34.93-.87.33-1.46l0,0c-.91-.93-1.82-1.86-2.71-2.81-.28-.3-.29-.58-.07-.78a.62.62,0,0,1,.92,0l.87.88c.73.74,1.47,1.48,2.19,2.23a.43.43,0,0,0,.6.07l.25-.13a1.45,1.45,0,0,0,.45-2.29c-2-2.15-4.1-4.27-6.15-6.4a.74.74,0,0,0-.61-.21,15.09,15.09,0,0,0-2.8.47A3.21,3.21,0,0,1,20.85,22a19.9,19.9,0,0,0-1.8-2,.36.36,0,0,0-.58,0L13.9,24.47c-.14.13-.17.29-.07.41a5.09,5.09,0,0,1,.6,1.08,7.12,7.12,0,0,0,1.45,1.64.45.45,0,0,0,.56.09,1.18,1.18,0,0,1,1.66,1.22c0,.13,0,.26-.06.39-.08.46-.06.48.39.39a1.18,1.18,0,0,1,1.43.49,1.17,1.17,0,0,1,0,1.09c-.13.33-.07.4.28.37Zm-8.6-7.07a.44.44,0,0,0,.31-.17l2.75-2.67,3.3-3.19c.28-.27.28-.4,0-.68l-2.1-2.18c-.4-.42-.47-.41-.89,0L11,20c-.51.49-1,1-1.52,1.49-.16.16-.27.33,0,.57.8.79,1.57,1.61,2.35,2.42A.32.32,0,0,0,12.07,24.53Zm27.33.86a.49.49,0,0,0,.32-.14l2.18-1.93c.36-.32.36-.43,0-.8l-2.23-2.44-3.37-3.7c-.19-.21-.4-.33-.64-.12-.78.69-1.55,1.39-2.32,2.09-.2.18-.22.33,0,.56q2.9,3.17,5.79,6.36A.3.3,0,0,0,39.4,25.39Z" transform="translate(-2.77 -1.47)"/></svg>