<svg id="Ebene_1" data-name="Ebene 1" xmlns="http://www.w3.org/2000/svg" viewBox="0 0 45.87 45.87"><defs><style>.cls-1{fill:#1d1d1b;}</style></defs><title>rotholz-water-based-print</title><path class="cls-1" d="M25.06,48.34A22.93,22.93,0,1,1,48,25.4,23,23,0,0,1,25.06,48.34Zm0-43.87A20.93,20.93,0,1,0,46,25.4,21,21,0,0,0,25.06,4.47Z" transform="translate(-2.13 -2.47)"/><path d="M24,37.89h-.27a6.45,6.45,0,0,1-1.94-.33,7.45,7.45,0,0,1-1.73-.67,8,8,0,0,1-2.67-2.2A7.38,7.38,0,0,1,16.44,33a5.61,5.61,0,0,1-.4-1.61A8.51,8.51,0,0,1,16.13,29a12.33,12.33,0,0,1,.48-1.82,11.51,11.51,0,0,1,.66-1.5,21.19,21.19,0,0,1,1.3-2.19c.41-.61.84-1.21,1.26-1.81.64-.93,1.3-1.84,1.91-2.79A24,24,0,0,0,23,16.71a13.1,13.1,0,0,0,.85-2.06c0-.06,0-.14.09-.16s.12.07.17.12a2.44,2.44,0,0,1,.25.66c.26.65.56,1.29.88,1.91.14.28.3.56.47.83a.39.39,0,0,1,.06.39,6.46,6.46,0,0,0-.41,1.18,4.45,4.45,0,0,0,.09,2.73,4.31,4.31,0,0,0,1.8,2.19,5.1,5.1,0,0,0,3.05.81.38.38,0,0,1,.38.21,16.16,16.16,0,0,1,.86,2A11.17,11.17,0,0,1,32,29.71a6.32,6.32,0,0,1,0,1.54,6.48,6.48,0,0,1-.51,2,7.34,7.34,0,0,1-1.23,1.88,8.17,8.17,0,0,1-2.21,1.72,10.28,10.28,0,0,1-1.69.7c-.41.14-.84.18-1.26.31a3.89,3.89,0,0,1-1.12,0Zm-6.15-7a3.43,3.43,0,0,0,.86,2.31,4,4,0,0,0,1.79,1.18,3.2,3.2,0,0,0,1.5.14.36.36,0,0,0,.23-.62,1.26,1.26,0,0,0-.46-.36,2.54,2.54,0,0,1-1.4-1.67,4.1,4.1,0,0,1-.18-1.58c0-.44.08-.88.11-1.32a13.39,13.39,0,0,1,.38-2.44c.07-.26.12-.52.21-.78a.48.48,0,0,0-.12-.58.55.55,0,0,0-.58,0,1,1,0,0,0-.42.33A7.45,7.45,0,0,0,19,26.85a17.08,17.08,0,0,0-.68,1.73A9.41,9.41,0,0,0,17.85,30.91Z" transform="translate(-2.13 -2.47)"/><path d="M29.78,24.51a4,4,0,0,1-3.07-1.69,3.34,3.34,0,0,1-.55-2.8,6.68,6.68,0,0,1,.69-1.85,15.29,15.29,0,0,1,1.06-1.62A20.34,20.34,0,0,0,29.54,14c.17-.32.29-.66.43-1,0-.06,0-.14.11-.14s.08.07.1.13a12,12,0,0,0,1.2,2.27c.39.58.81,1.15,1.22,1.72a8.83,8.83,0,0,1,1.25,2.26,4.17,4.17,0,0,1,.21,2.18,3.47,3.47,0,0,1-1.42,2.19A4.53,4.53,0,0,1,29.78,24.51Zm-2.61-3.68a1.91,1.91,0,0,0,.13.71,2,2,0,0,0,1.55,1.1.6.6,0,0,0,.36,0c.18-.09.2-.19.07-.34a1.59,1.59,0,0,0-.33-.21,1.6,1.6,0,0,1-.63-1.51,9.66,9.66,0,0,1,.29-2.21c0-.15.06-.31-.1-.39s-.28,0-.4.12a.51.51,0,0,0-.11.16,7.59,7.59,0,0,0-.46.94A4.34,4.34,0,0,0,27.17,20.83Z" transform="translate(-2.13 -2.47)"/></svg>