<svg id="Ebene_1" data-name="Ebene 1" xmlns="http://www.w3.org/2000/svg" viewBox="0 0 45.87 45.87"><title>rotholz-made-in-germany</title><path d="M24,47.34A22.93,22.93,0,1,1,46.88,24.4,23,23,0,0,1,24,47.34ZM24,3.47A20.93,20.93,0,1,0,44.88,24.4,21,21,0,0,0,24,3.47Z" transform="translate(-1.02 -1.47)"/><path d="M21.12,19.86a3.14,3.14,0,0,1,1.62,1.21,4.22,4.22,0,0,1,.68,1.54,7.37,7.37,0,0,1,.18,1.57,6.31,6.31,0,0,1-.76,3.21,3.44,3.44,0,0,1-3.19,1.77h-4.1V19.65h4.1A5,5,0,0,1,21.12,19.86ZM17.48,21.3v6.21h1.84a2,2,0,0,0,2-1.39,4.89,4.89,0,0,0,.3-1.81,4.45,4.45,0,0,0-.46-2.23,1.92,1.92,0,0,0-1.81-.78Z" transform="translate(-1.02 -1.47)"/><path d="M32.12,21.33h-5v2h4.62V25H27.09v2.44h5.26v1.71H25.15V19.65h7Z" transform="translate(-1.02 -1.47)"/></svg>