<svg id="Ebene_1" data-name="Ebene 1" xmlns="http://www.w3.org/2000/svg" viewBox="0 0 45.87 45.87"><title>rotholz-wool</title><path d="M25.46,47.34A22.93,22.93,0,1,1,48.39,24.4,23,23,0,0,1,25.46,47.34Zm0-43.87A20.93,20.93,0,1,0,46.39,24.4,21,21,0,0,0,25.46,3.47Z" transform="translate(-2.52 -1.47)"/><path d="M7.48,24.44a14.93,14.93,0,0,1,.65-2,10.23,10.23,0,0,1,3.08-4.16.52.52,0,0,0,.21-.42,3.36,3.36,0,0,1,.81-2.06,6.79,6.79,0,0,1,3.91-2.43,5.27,5.27,0,0,1,2.89.1,3.62,3.62,0,0,1,2.41,2.84,6.2,6.2,0,0,1-4.3,7.2.79.79,0,0,1-1.06-1,1.64,1.64,0,0,1,.25-.55,8.55,8.55,0,0,0,1-2.27,1.17,1.17,0,0,0,0-.77.47.47,0,0,0-.65-.34,1.88,1.88,0,0,0-.78.44,8.29,8.29,0,0,1-1,.79,2.26,2.26,0,0,1-1.9.38,2.7,2.7,0,0,1-.79-.42c-.11-.08-.2-.11-.32,0a8.53,8.53,0,0,0-2.63,4.33,3.19,3.19,0,0,0-.08,1.14,1.45,1.45,0,0,0,1.7,1.39,4.21,4.21,0,0,0,2.44-1.1,5.49,5.49,0,0,0,1.16-1.29A.9.9,0,0,1,15,23.8a.74.74,0,0,1,1,.88A4.67,4.67,0,0,0,16.21,27a3.38,3.38,0,0,0,2.54,2.09,7.44,7.44,0,0,0,.75.14,1.1,1.1,0,0,1,1,.8,3.13,3.13,0,0,0,4.74,1.74c.22-.13.43-.28.64-.43a.9.9,0,0,1,1.28.08,4.63,4.63,0,0,0,1.55,1,3.73,3.73,0,0,0,4.18-1.16,2.17,2.17,0,0,1,1.64-.94,4,4,0,0,0,1-.22,3.27,3.27,0,0,0,2.22-3.48c0-.35-.12-.68-.18-1a.83.83,0,0,1,1.09-1,8.83,8.83,0,0,1,.93.35,3.06,3.06,0,0,0,1.55.2h0c.32,0,.49-.16.52-.35s-.2-.36-.38-.46a3.15,3.15,0,0,0-1.39-.19l-1.22,0-.2,0a.78.78,0,0,1-.69-1.1c.07-.24.18-.48.26-.72a4.61,4.61,0,0,0,.08-3.18A3.8,3.8,0,0,0,35,16.67a1.2,1.2,0,0,1-1-.75c-.1-.23-.19-.46-.3-.68a3.09,3.09,0,0,0-3-1.64,3.38,3.38,0,0,0-2.41,1.21c-.58.66-.94.66-1.54,0a2.8,2.8,0,0,0-1.46-1,2.11,2.11,0,0,0-2.21.94c-.12.17-.22.34-.34.5a.77.77,0,0,1-1.31-.81,3.72,3.72,0,0,1,5.89-1.34c.15.12.24.14.39,0a4.9,4.9,0,0,1,6.58.25,3.67,3.67,0,0,1,.76,1.09,1.31,1.31,0,0,0,1,.82,4.88,4.88,0,0,1,2,1A5.27,5.27,0,0,1,40,20.22a6.75,6.75,0,0,1-.26,2.16c-.06.21,0,.24.19.25a8.31,8.31,0,0,1,1.77.18,2.48,2.48,0,0,1,1.65,1.45,1.33,1.33,0,0,1-.08,1.22,2.61,2.61,0,0,1-2.71,1.34c-.33,0-.65-.11-1-.17s-.28-.06-.28.24a5.81,5.81,0,0,1-.22,1.81,4.29,4.29,0,0,1-2.61,2.81,5.88,5.88,0,0,1-1.22.39c-.18,0-.18.09-.13.23q.41,1.22.81,2.44a6,6,0,0,1,.36,1.37.77.77,0,0,1-.43.82s-.07,0-.08.07H35.3a1.69,1.69,0,0,1-.65-1c-.14-.44-.29-.88-.44-1.33s-.34-1.12-.56-1.66a.65.65,0,0,0-.23.16,5.31,5.31,0,0,1-6.71.16c-.35-.26-.25-.25-.64,0a5,5,0,0,1-4.83.19c-.15-.08-.18,0-.22.1-.27.72-.49,1.45-.71,2.18a2.09,2.09,0,0,1-.73,1.2h-.41l-.06-.06a.83.83,0,0,1-.47-1.16c.1-.35.22-.7.33-1.05.21-.74.53-1.44.71-2.18a.62.62,0,0,0-.12-.57,2.28,2.28,0,0,1-.42-.77.35.35,0,0,0-.3-.26c-.21,0-.43-.08-.64-.14a4.89,4.89,0,0,1-3.49-3,7.57,7.57,0,0,1-.26-.92l-.06,0-.18.14a6.09,6.09,0,0,1-2.38,1.23,3.66,3.66,0,0,1-2.6-.18,3.79,3.79,0,0,1-1.86-2.58A5.15,5.15,0,0,1,7.48,24.44Zm11.27-3.85c.09,0,.12-.09.16-.14a4.28,4.28,0,0,0,1-3.81,2.2,2.2,0,0,0-2.23-1.84,5.25,5.25,0,0,0-3.27,1.11,3.6,3.6,0,0,0-1.31,1.68,1,1,0,0,0,0,.68.47.47,0,0,0,.52.37,1.12,1.12,0,0,0,.67-.28,10.61,10.61,0,0,1,1.66-1.16A1.94,1.94,0,0,1,17.06,17,2.14,2.14,0,0,1,19,19.11,5.7,5.7,0,0,1,18.74,20.59Z" transform="translate(-2.52 -1.47)"/></svg>