<?xml version="1.0" encoding="utf-8"?>
<!-- Generator: Adobe Illustrator 21.0.2, SVG Export Plug-In . SVG Version: 6.00 Build 0)  -->
<svg version="1.1" id="Ebene_1" xmlns="http://www.w3.org/2000/svg" xmlns:xlink="http://www.w3.org/1999/xlink" x="0px" y="0px"
	 viewBox="0 0 366 40" style="enable-background:new 0 0 366 40;" xml:space="preserve">
<g>
	<path d="M9.2,8.1h8.4c1.6,0,2.7,0.2,3.5,0.6c1.4,0.8,2.1,2.2,2.1,4.4c0,2-0.7,3.4-2.2,4.1c-0.8,0.4-2,0.6-3.7,0.6H9.2V8.1z
		 M34.4,38.2l-9.3-16.1c1.8-0.9,3.7-3.3,4.5-4.9c0.9-1.7,1.3-3.4,1.3-5.1c0-1.4-0.2-2.7-0.7-3.8c-0.4-1.1-1.1-2.1-1.8-3.1
		c-0.9-1.1-2.1-2-3.4-2.5c-1.3-0.6-3.3-0.9-5.7-0.9H1.8v36.4h7.4V23.9h7.4c0.2,0,0.4,0,0.6,0l8,14.3H34.4z"/>
	<path d="M75.6,32.1c-2.9,0-5.1-1.1-6.8-3.2c-1.7-2.1-2.5-5.1-2.5-9s0.8-6.9,2.5-9s4-3.2,6.8-3.2c2.9,0,5.1,1.1,6.8,3.2
		c1.7,2.1,2.5,5.1,2.5,9s-0.8,6.9-2.5,9C80.7,31.1,78.4,32.1,75.6,32.1 M92.1,20c0-6.3-1.7-11.1-5.2-14.2c-2.6-2.7-6.4-4-11.3-4
		s-8.7,1.3-11.3,4C60.8,8.9,59,13.7,59,20c0,6.2,1.7,10.9,5.2,14.2c2.6,2.7,6.4,4,11.3,4s8.7-1.3,11.3-4
		C90.3,30.9,92.1,26.2,92.1,20 M117.5,2.8v6.1h10.4v28.4h7.3V8.9h10.3V2.8H117.5z M179.6,37.3V21.9H193v15.4h7.2V2.8H193V16h-13.4
		V2.8h-7.2v34.5H179.6z M244.1,32.1c-2.9,0-5.1-1.1-6.8-3.2s-2.5-5.1-2.5-9s0.8-6.9,2.5-9s4-3.2,6.8-3.2c2.9,0,5.1,1.1,6.8,3.2
		s2.5,5.1,2.5,9s-0.8,6.9-2.5,9C249.2,31.1,247,32.1,244.1,32.1 M260.6,20c0-6.3-1.7-11.1-5.2-14.2c-2.6-2.7-6.4-4-11.3-4
		c-4.9,0-8.7,1.3-11.3,4c-3.5,3.2-5.2,7.9-5.2,14.2c0,6.2,1.8,10.9,5.2,14.2c2.6,2.7,6.4,4,11.3,4c4.9,0,8.7-1.3,11.3-4
		C258.9,30.9,260.6,26.2,260.6,20 M287.9,37.3h24.4v-6.2h-17.2V2.8h-7.2L287.9,37.3L287.9,37.3z M337.6,37.3h26.6v-6.1h-17.9
		l17.9-22.6V2.8H338v6.1h17.2l-17.6,22.3V37.3z"/>
</g>
</svg>
