<svg id="Ebene_1" data-name="Ebene 1" xmlns="http://www.w3.org/2000/svg" viewBox="0 0 45.87 45.87"><title>rotholz-vegan</title><path d="M25.21,47.34A22.93,22.93,0,1,1,48.14,24.4,23,23,0,0,1,25.21,47.34Zm0-43.87A20.93,20.93,0,1,0,46.14,24.4,21,21,0,0,0,25.21,3.47Z" transform="translate(-2.28 -1.47)"/><path d="M36.59,10.68h-.07a7.61,7.61,0,0,0-1.78.07c-.38,0-.76.11-1.13.19-.6.13-1.21.21-1.79.4L30,11.94a14.68,14.68,0,0,0-1.4.65,7.23,7.23,0,0,0-1,.57,9.83,9.83,0,0,0-1.35,1,6.68,6.68,0,0,0-1.2,1.5,5.23,5.23,0,0,0-.71,3.09,6.89,6.89,0,0,0,.51,2.1c0,.05,0,.13.11.13s.1-.06.13-.12l0-.08a11.64,11.64,0,0,1,1.13-2.05,12.59,12.59,0,0,1,1.57-1.88,11.74,11.74,0,0,1,1-.93c.35-.27.7-.54,1.07-.78a13.41,13.41,0,0,1,1.16-.69,12.77,12.77,0,0,1,1.65-.76.29.29,0,0,1,.24,0l0,.06c-.46.36-.89.75-1.32,1.15q-.93.87-1.78,1.82c-.54.61-1.06,1.23-1.54,1.89a13,13,0,0,0-2,3.4L22.75,34.28,19.25,24H15.64L21.1,38.17h3.19l5.44-15.95a9.13,9.13,0,0,0,1.69-.45,4.42,4.42,0,0,0,2.8-3,15.74,15.74,0,0,0,.49-2.74,18.16,18.16,0,0,1,.34-2A6.91,6.91,0,0,1,36.67,11C36.84,10.8,36.82,10.74,36.59,10.68Z" transform="translate(-2.28 -1.47)"/></svg>