<svg id="Ebene_1" data-name="Ebene 1" xmlns="http://www.w3.org/2000/svg" viewBox="0 0 45.96 45.87"><defs><style>.cls-1{fill:#1d1d1b;}.cls-2{fill:none;}</style></defs><title>rotholz-co2-neutral</title><path class="cls-1" d="M23,45.86A22.93,22.93,0,1,1,45.92,22.93,23,23,0,0,1,23,45.86ZM23,2A20.93,20.93,0,1,0,43.92,22.93,21,21,0,0,0,23,2Z" transform="translate(-0.01 0.01)"/><path d="M32.66,31.94H13.31a6.06,6.06,0,0,1-4.09-1.47,4.66,4.66,0,0,1-1.66-3.9,4.72,4.72,0,0,1,2.27-3.64,7.37,7.37,0,0,1,1.25-.62,7.59,7.59,0,0,1,3.1-6.76,7.54,7.54,0,0,1,7.51-1.09,7.55,7.55,0,0,1,3.87,3.17,5.83,5.83,0,0,1,7.38,3.09A4.67,4.67,0,0,1,33.31,22a6.06,6.06,0,0,1,3.47,1.47,4.61,4.61,0,0,1-.54,7.45A6.45,6.45,0,0,1,32.66,31.94Zm-4.21-1.47h4.21a4.94,4.94,0,0,0,2.78-.82,3.14,3.14,0,0,0,.37-5.12,4.58,4.58,0,0,0-2.73-1.12,1.21,1.21,0,0,1-1.21-1.11,3.24,3.24,0,0,0-.28-1,4.36,4.36,0,0,0-5.72-2.26,1,1,0,0,1-1.44-.46,6.11,6.11,0,0,0-3.26-2.78,6.39,6.39,0,0,0-8.64,6.51,1.16,1.16,0,0,1-.81,1.27,5.94,5.94,0,0,0-1.13.55A3.27,3.27,0,0,0,9,26.68a3.21,3.21,0,0,0,1.15,2.68,4.58,4.58,0,0,0,3.13,1.11H28.46Zm4.7-8.53h0Z" transform="translate(-0.01 0.01)"/><path d="M16.4,22.15a2.31,2.31,0,0,1,1.72-.69,2.32,2.32,0,0,1,2,.93,2,2,0,0,1,.38,1H19.39a1.6,1.6,0,0,0-.29-.61,1.15,1.15,0,0,0-.93-.37,1.14,1.14,0,0,0-1,.52,2.52,2.52,0,0,0-.36,1.46,2.21,2.21,0,0,0,.38,1.41,1.2,1.2,0,0,0,1,.47,1.1,1.1,0,0,0,.92-.4,1.77,1.77,0,0,0,.29-.65h1.16a2.53,2.53,0,0,1-.77,1.49,2.24,2.24,0,0,1-1.59.57,2.38,2.38,0,0,1-1.88-.78,3.13,3.13,0,0,1-.68-2.14A3.1,3.1,0,0,1,16.4,22.15Z" transform="translate(-0.01 0.01)"/><path d="M26.22,26.67a2.44,2.44,0,0,1-1.84.65,2.44,2.44,0,0,1-1.84-.65,3,3,0,0,1-.85-2.31A3,3,0,0,1,22.55,22a2.44,2.44,0,0,1,1.84-.65,2.44,2.44,0,0,1,1.84.65,3,3,0,0,1,.85,2.31A3,3,0,0,1,26.22,26.67Zm-.73-.85a2.29,2.29,0,0,0,.41-1.46,2.3,2.3,0,0,0-.41-1.46,1.34,1.34,0,0,0-1.1-.52,1.35,1.35,0,0,0-1.11.51,2.27,2.27,0,0,0-.41,1.46,2.27,2.27,0,0,0,.41,1.46,1.35,1.35,0,0,0,1.11.51A1.34,1.34,0,0,0,25.49,25.82Z" transform="translate(-0.01 0.01)"/><path d="M28.81,27.66a2.3,2.3,0,0,1,.82-.88,6,6,0,0,0,.73-.58.85.85,0,0,0,.25-.59.66.66,0,0,0-.15-.44.59.59,0,0,0-.92.1,1.37,1.37,0,0,0-.09.51h-.79a2,2,0,0,1,.19-.85A1.19,1.19,0,0,1,30,24.31a1.47,1.47,0,0,1,1,.36,1.26,1.26,0,0,1,.39,1,1.3,1.3,0,0,1-.27.82,2.73,2.73,0,0,1-.59.53l-.33.23-.42.31a.92.92,0,0,0-.19.23h1.81v.72H28.62A1.94,1.94,0,0,1,28.81,27.66Z" transform="translate(-0.01 0.01)"/><rect class="cls-2" y="0.01" width="45.96" height="45.86"/></svg>