<svg id="Ebene_1" data-name="Ebene 1" xmlns="http://www.w3.org/2000/svg" viewBox="0 0 45.87 45.87"><title>rotholz-limited</title><path d="M25.18,48.34A22.93,22.93,0,1,1,48.12,25.4,23,23,0,0,1,25.18,48.34Zm0-43.87A20.93,20.93,0,1,0,46.12,25.4,21,21,0,0,0,25.18,4.47Z" transform="translate(-2.25 -2.47)"/><path d="M13.1,20.71h2v7.71h4.69V30.1H13.1Z" transform="translate(-2.25 -2.47)"/><path d="M26.94,20.71v1.66H24.13V30.1h-2V22.37H19.33V20.71Z" transform="translate(-2.25 -2.47)"/><path d="M33.59,20.91a3.1,3.1,0,0,1,1.6,1.19,4.17,4.17,0,0,1,.67,1.52A7.28,7.28,0,0,1,36,25.18a6.23,6.23,0,0,1-.75,3.17,3.4,3.4,0,0,1-3.15,1.75H28.09v-9.4h4.05A4.94,4.94,0,0,1,33.59,20.91ZM30,22.34v6.13h1.81a2,2,0,0,0,1.94-1.37,4.83,4.83,0,0,0,.3-1.79,4.4,4.4,0,0,0-.45-2.2,1.9,1.9,0,0,0-1.79-.77Z" transform="translate(-2.25 -2.47)"/><path d="M37.34,28.2h1.93V30.1H37.34Z" transform="translate(-2.25 -2.47)"/></svg>